<svg xmlns="http://www.w3.org/2000/svg" width="360" height="285.022" viewBox="0 0 360 285.022">
  <g id="Groupe_2221" data-name="Groupe 2221" transform="translate(0 -355.978)">
    <path id="Intersection_8" data-name="Intersection 8" d="M-2065.294,5639.628v-78.846c40.854-36.225,119.5-71.662,177.817-92.219,59.367-20.929,120.095-2.806,169.667,15.316q5.865,2.144,11.517,4.27v188.337C-1831.257,5675.714-2007.73,5669.125-2065.294,5639.628Z" transform="translate(2065.794 -5053)" fill="#56676d"/>
    <path id="Intersection_9" data-name="Intersection 9" d="M-1926.042,5499.059c78.033-51.531,112.2-43.313,148.428-66.066,12.264-7.7,24.41-25.313,35.113-45.244v230.1l-263.021,4.491S-2004.076,5550.59-1926.042,5499.059Z" transform="translate(2102 -5031.771)" fill="#384448"/>
    <path id="Intersection_10" data-name="Intersection 10" d="M-1965.249,5589s-163.6-23.558-104.01-58.26c30.317-17.658,81.632-13.53,129.942-9.4,46.642,3.983,90.483,7.968,109.928-7.649,34.3-27.548,57.81-44.8,85.889-42.019v92.9l-198.384,31.911Z" transform="translate(2103 -4980)" fill="#0d1112"/>
    <rect id="Rectangle_123" data-name="Rectangle 123" width="360" height="79" transform="translate(0 562)" fill="#0d1112"/>
  </g>
</svg>
