<svg xmlns="http://www.w3.org/2000/svg" width="360" height="640" viewBox="0 0 360 640">
  <g id="Groupe_2222" data-name="Groupe 2222" transform="translate(-10214 5963)">
    <rect id="Rectangle_637" data-name="Rectangle 637" width="360" height="640" transform="translate(10214 -5963)" fill="#dae7e8"/>
    <path id="Intersection_18" data-name="Intersection 18" d="M-9281.61,6230.5l-77.449-24.711V5980.9c50.905-.918,104.74,11.97,182.222,36.313,46.306,14.548,109.75,24.267,176.777,30.743V6230.5Z" transform="translate(19573.559 -11718)" fill="#ead9da"/>
    <path id="Intersection_20" data-name="Intersection 20" d="M-9366.584,6365.992V6156.038c73.792,46.166,175.017,187.841,143.326,234.019-2.981,4.344-9.92,6.32-20.063,6.321C-9268.446,6396.38-9313.282,6384.257-9366.584,6365.992Z" transform="translate(19581.086 -11761.578)" fill="#c1e0eb"/>
    <path id="Intersection_19" data-name="Intersection 19" d="M-9710.937,6363.437c37.6-59.311,87.616-125.219,135.522-147.892,53.564-25.35,141.1-25.292,223.478-27.6v225.827l-359,49.685Z" transform="translate(19925.438 -11830.424)" fill="#44565c"/>
    <path id="Intersection_16" data-name="Intersection 16" d="M-9381.035,6224.1V6089.906c32.633,8.91,69.491,6.329,108.453,3.746,65.592-4.348,137.156-8.7,204.6,41.788,20.1,15.048,35.05,29.325,45.943,42.723V6224.1Z" transform="translate(19595.535 -11547.599)" fill="#1f292c"/>
    <path id="Intersection_17" data-name="Intersection 17" d="M-9625.95,6339.194c-.405-20.877,14.729-50.631,67.4-91.433,53.1-41.134,101.5-54.272,146.053-62.09v153.523Z" transform="translate(19986 -11662.693)" fill="#191f21"/>
  </g>
</svg>
